# xmcd
#
# Track frame offsets: 
#        150
#        12727
#        23555
#        34158
#        43483
#        53933
#        63833
#        75958
#        87038
#        99502
#        109766
#        120464
#        131150
#        143991
#        156216
#        169834
#        182551
#        193840
#        205407
#        217335
#        228216
#        239051
#        249230
#        260404
#        271575
#        284666
#
# Disc length: 3945 seconds
#
# Revision: 0
# Processed by: cddbd v1.5.2PL0 Copyright (c) Steve Scherf et al.
# Submitted via: ExactAudioCopyFreeDBPlugin 1.0
#
DISCID=7b0f671a
DTITLE=Mitchell Torok - Drink Up And Go Home
DYEAR=1900
DGENRE=Country
TTITLE0=Drink Up And Go Home
TTITLE1=Take This Heart
TTITLE2=Havana Huddle
TTITLE3=Mitchell Torok (With The Tulane Sisters) - Red Light Green Lig
TTITLE3=ht
TTITLE4=What's Behind The Strange Door
TTITLE5=Pledge Of Love
TTITLE6=Mitchell Torok (Acc. The Louisiana Hayride Band) - Haunting Wa
TTITLE6=terfall
TTITLE7=Mitchell Torok (Acc. The Louisiana Hayride Band) - Dancerette
TTITLE8=A Peasant's Guitar
TTITLE9=The World Keeps Turning Around
TTITLE10=When Mexico Gave Up The Rhumba
TTITLE11=I Wish I Was A Little Bit Younger
TTITLE12=No Money Down
TTITLE13=Mitchell Torok (Acc. The Louisiana Hayride Band) - Hootchy Ko
TTITLE13=otchy Henry From Hawaii
TTITLE14=Mitchell Torok (Acc. The Louisiana Hayride Band) - Gigolo
TTITLE15=Mitchell Torok (Acc. The Louisiana Hayride Band) - Weep Away
TTITLE16=Mitchell Torok (Acc. The Louisiana Hayride Band) - Caribbean
TTITLE17=Mitchell Torok (Acc. The Louisiana Hayride Band) - Judalina
TTITLE18=Mitchell Torok (Acc. The Louisiana Hayride Band) - Littlt Hoo
TTITLE18=Wee
TTITLE19=Mitchell Torok (Acc. The Louisiana Hayride Band) - Living On 
TTITLE19=Love
TTITLE20=Love Me Like You Mean It
TTITLE21=Go Ahead And Be A Fool
TTITLE22=Memories Of You Haunting Me Night And Day
TTITLE23=Sweet Revenge
TTITLE24=Mitchell Torok (Acc. by Sally Lee) - Sober Up
TTITLE25=Mitchell Torok (Acc. The Louisiana Hayride Band) - Edgar The 
TTITLE25=Eager Easter Bunny
EXTD=
EXTT0=
EXTT1=
EXTT2=
EXTT3=
EXTT4=
EXTT5=
EXTT6=
EXTT7=
EXTT8=
EXTT9=
EXTT10=
EXTT11=
EXTT12=
EXTT13=
EXTT14=
EXTT15=
EXTT16=
EXTT17=
EXTT18=
EXTT19=
EXTT20=
EXTT21=
EXTT22=
EXTT23=
EXTT24=
EXTT25=
PLAYORDER=
